<?xml version="1.0" encoding="UTF-8" standalone="no"?>
<!-- Generator: Adobe Illustrator 15.1.0, SVG Export Plug-In . SVG Version: 6.00 Build 0)  -->

<svg
   xmlns:dc="http://purl.org/dc/elements/1.1/"
   xmlns:cc="http://creativecommons.org/ns#"
   xmlns:rdf="http://www.w3.org/1999/02/22-rdf-syntax-ns#"
   xmlns:svg="http://www.w3.org/2000/svg"
   xmlns="http://www.w3.org/2000/svg"
   xmlns:xlink="http://www.w3.org/1999/xlink"
   xmlns:sodipodi="http://sodipodi.sourceforge.net/DTD/sodipodi-0.dtd"
   xmlns:inkscape="http://www.inkscape.org/namespaces/inkscape"
   version="1.1"
   id="Livello_1"
   x="0px"
   y="0px"
   width="588px"
   height="588px"
   viewBox="20.267 102.757 588 588"
   enable-background="new 20.267 102.757 588 588"
   xml:space="preserve"
   inkscape:version="0.48.4 r9939"
   sodipodi:docname="icon.svg"
   inkscape:export-filename="C:\Users\krosenbohm\Desktop\NerDisco\resources\icon_24.png"
   inkscape:export-xdpi="3.6500001"
   inkscape:export-ydpi="3.6500001"><metadata
   id="metadata62"><rdf:RDF><cc:Work
       rdf:about=""><dc:format>image/svg+xml</dc:format><dc:type
         rdf:resource="http://purl.org/dc/dcmitype/StillImage" /><dc:title></dc:title><cc:license
         rdf:resource="http://creativecommons.org/licenses/by-sa/3.0/" /></cc:Work><cc:License
       rdf:about="http://creativecommons.org/licenses/by-sa/3.0/"><cc:permits
         rdf:resource="http://creativecommons.org/ns#Reproduction" /><cc:permits
         rdf:resource="http://creativecommons.org/ns#Distribution" /><cc:requires
         rdf:resource="http://creativecommons.org/ns#Notice" /><cc:requires
         rdf:resource="http://creativecommons.org/ns#Attribution" /><cc:permits
         rdf:resource="http://creativecommons.org/ns#DerivativeWorks" /><cc:requires
         rdf:resource="http://creativecommons.org/ns#ShareAlike" /></cc:License></rdf:RDF></metadata><defs
   id="defs60"><linearGradient
     gradientTransform="matrix(1,0,0,-1,-6,797)"
     y2="5.6630998"
     x2="389.31799"
     y1="737.66602"
     x1="241.3174"
     gradientUnits="userSpaceOnUse"
     id="linearGradient3815">
		<stop
   id="stop3817"
   style="stop-color:#666600;stop-opacity:1;"
   offset="0.1" />
		<stop
   id="stop3819"
   style="stop-color:#ffed00;stop-opacity:1;"
   offset="1" />
		
	</linearGradient><linearGradient
     inkscape:collect="always"
     xlink:href="#linearGradient3815"
     id="linearGradient3813"
     x1="252.49001"
     y1="353.0065"
     x2="608.15802"
     y2="353.0065"
     gradientUnits="userSpaceOnUse" /></defs><sodipodi:namedview
   pagecolor="#ffffff"
   bordercolor="#666666"
   borderopacity="1"
   objecttolerance="10"
   gridtolerance="10"
   guidetolerance="10"
   inkscape:pageopacity="0"
   inkscape:pageshadow="2"
   inkscape:window-width="1920"
   inkscape:window-height="1058"
   id="namedview58"
   showgrid="false"
   inkscape:snap-bbox="true"
   inkscape:snap-page="true"
   inkscape:object-paths="true"
   inkscape:snap-intersection-paths="true"
   inkscape:object-nodes="true"
   inkscape:snap-smooth-nodes="true"
   inkscape:zoom="0.40136054"
   inkscape:cx="-88.643613"
   inkscape:cy="489.42463"
   inkscape:window-x="-8"
   inkscape:window-y="-8"
   inkscape:window-maximized="1"
   inkscape:current-layer="g3" />
<g
   id="g3">
	<path
   fill="#FFFFFF"
   stroke="#F1F2F2"
   stroke-width="3"
   stroke-miterlimit="10"
   d="M314.267,104.257h-0.006H314.267z"
   id="path5" />
	<path
   fill="#FFFFFF"
   stroke="#F1F2F2"
   stroke-width="3"
   stroke-miterlimit="10"
   d="M593.641,309.856   c7.779,25.038,12.282,51.518,13.015,78.938C606.627,360.895,602.006,334.259,593.641,309.856z"
   id="path7" />
	<path
   fill="#FFFFFF"
   stroke="#F1F2F2"
   stroke-width="3"
   stroke-miterlimit="10"
   d="M320.269,689.182   c-1.997,0.04-3.995,0.076-6.002,0.076C316.274,689.258,318.274,689.229,320.269,689.182z"
   id="path9" />
	<path
   fill="#FFFFFF"
   stroke="#F1F2F2"
   stroke-width="3"
   stroke-miterlimit="10"
   d="M314.267,689.258   c-2.007,0-4.005-0.036-6.002-0.076C310.259,689.229,312.259,689.258,314.267,689.258z"
   id="path11" />
	<path
   fill="#FFFFFF"
   stroke="#F1F2F2"
   stroke-width="3"
   stroke-miterlimit="10"
   d="M308.266,104.333   c1.995-0.04,3.991-0.076,5.995-0.076C312.256,104.257,310.258,104.286,308.266,104.333z"
   id="path13" />
	<path
   fill="#FFFFFF"
   stroke="#F1F2F2"
   stroke-width="3"
   stroke-miterlimit="10"
   d="M314.268,104.257   C314.268,104.257,314.268,104.257,314.268,104.257c2.007,0,4.005,0.036,6.003,0.076   C318.275,104.286,316.275,104.257,314.268,104.257z"
   id="path15" />
	
		<linearGradient
   id="SVGID_1_"
   gradientUnits="userSpaceOnUse"
   x1="241.3174"
   y1="737.66602"
   x2="389.31799"
   y2="5.6630998"
   gradientTransform="matrix(1,0,0,-1,-6,797)">
		<stop
   offset="0.1"
   style="stop-color:#cc23cc;stop-opacity:1;"
   id="stop18" />
		<stop
   offset="0.30930001"
   style="stop-color:#660c66;stop-opacity:1;"
   id="stop20" />
		<stop
   offset="1"
   style="stop-color:#1C1B1C"
   id="stop22" />
	</linearGradient>
	<path
   stroke-miterlimit="10"
   d="m 497.885,194.197 c -35.951,-52.42 -101.821,-89.646 -177.614,-91.44 -1.998,-0.041 -4.29844,0 -6.30644,0 l -293.69756,0 0,278.1001 c 0,24.95691 157.194,-204.4311 182.988,-204.4311 41.792,0 80.278,16.559 110.958,44.369 31.15,28.237 54.245,68.078 64.56,113.999 3.892,17.322 5.973,35.505 5.973,54.259 0,24.827 -3.645,48.653 -10.319,70.803 43.404,-10.909 81.033,-33.316 108.05,-63.098 27.84,-30.689 44.418,-69.196 44.418,-111.013 -10e-4,-33.392 -10.578,-64.671 -29.01,-91.548 z"
   id="path24"
   style="fill:url(#SVGID_1_);fill-opacity:1;stroke:#f1f2f2;stroke-width:3;stroke-miterlimit:10"
   inkscape:connector-curvature="0"
   sodipodi:nodetypes="ccccssccscscc" />
	<path
   stroke-miterlimit="10"
   d="m 606.655,388.794 c -0.732,-27.42 1.612,-52.71911 1.612,-78.938 l 0,-207.099 -294.48844,0 c -28.75586,0 195.45097,-8.722747 213.11444,182.988 3.8366,41.64063 -16.578,80.324 -44.418,111.013 -27.017,29.781 -64.646,52.188 -108.05,63.098 -19.077,4.795 -39.263,7.38 -60.159,7.38 -20.939,0 -41.165,-2.596 -60.276,-7.41 11.732,38.949 32.869,72.69 60.221,97.485 30.68,27.81 69.165,44.369 110.956,44.369 31.125,0 60.417,-9.186 86.018,-25.359 56.843,-35.912 95.473,-106.302 95.473,-187.267 0,-0.087 -0.003,-0.173 -0.003,-0.26 z"
   id="path26"
   style="fill:url(#linearGradient3813);fill-opacity:1;stroke:#f1f2f2;stroke-width:3;stroke-miterlimit:10"
   inkscape:connector-curvature="0"
   sodipodi:nodetypes="cscsssssccscsc" />
	<g
   id="g28">
		
			<linearGradient
   id="SVGID_2_"
   gradientUnits="userSpaceOnUse"
   x1="309.9668"
   y1="107.8887"
   x2="314.2646"
   y2="107.8887"
   gradientTransform="matrix(1 0 0 -1 -6 797)">
			<stop
   offset="0"
   style="stop-color:#0090C7"
   id="stop31" />
			<stop
   offset="0.8326"
   style="stop-color:#2E3192"
   id="stop33" />
		</linearGradient>
		<path
   fill="url(#SVGID_2_)"
   stroke="#F1F2F2"
   stroke-width="3"
   stroke-miterlimit="10"
   d="M303.966,689.041    c1.429,0.059,2.862,0.106,4.298,0.141C306.828,689.152,305.398,689.091,303.966,689.041z"
   id="path35" />
		
			<linearGradient
   id="SVGID_3_"
   gradientUnits="userSpaceOnUse"
   x1="27.7671"
   y1="364.2666"
   x2="384.7725"
   y2="364.2666"
   gradientTransform="matrix(1 0 0 -1 -6 797)">
			<stop
   offset="0"
   style="stop-color:#00c7c7;stop-opacity:1;"
   id="stop38" />
			<stop
   offset="0.8326"
   style="stop-color:#001c66;stop-opacity:1;"
   id="stop40" />
		</linearGradient>
		<path
   stroke-miterlimit="10"
   d="m 249.646,334.825 c 20.38,-5.543 42.089,-8.545 64.622,-8.545 22.49,0 44.159,2.99 64.505,8.513 -10.314,-45.92 -33.409,-85.761 -64.56,-113.999 -30.68,-27.81 -69.166,-44.369 -110.958,-44.369 -25.794,0 -50.325,6.318 -72.544,17.683 -42.417,21.696 -76.387,61.824 -94.523,111.756 -8.998,27.543 -14.013,56.882 -14.375,87.344 -0.014,1.183 -0.03894,2.36102 -0.045,3.547 l -1.501,294.002 294,-1.499 c 23.48398,-0.11974 -212.626,-157.196 -212.626,-181.491 0,-41.816 16.579,-80.322 44.418,-111.01 26.087,-28.756 62.066,-50.638 103.587,-61.932 z"
   id="path42"
   inkscape:connector-curvature="0"
   style="fill:url(#SVGID_3_);stroke:#f1f2f2;stroke-width:3;stroke-miterlimit:10"
   sodipodi:nodetypes="csccssccscsssc" />
	</g>
	
		<linearGradient
   id="SVGID_4_"
   gradientUnits="userSpaceOnUse"
   x1="282.7324"
   y1="647.4258"
   x2="404.7324"
   y2="161.4258"
   gradientTransform="matrix(1 0 0 -1 -6 797)">
		<stop
   offset="0.60470003"
   style="stop-color:#666666;stop-opacity:1;"
   id="stop45" />
		<stop
   offset="1"
   style="stop-color:#c7c7c7;stop-opacity:1;"
   id="stop47" />
	</linearGradient>
	<path
   stroke-miterlimit="10"
   d="m 608.267,690.757 -1.611,-301.962 c 0,0.086 0.003,0.172 0.003,0.259 0,80.965 -38.63,151.355 -95.473,187.267 -25.601,16.174 -54.893,25.359 -86.018,25.359 -41.791,0 -80.276,-16.56 -110.956,-44.369 -27.353,-24.795 -48.489,-58.536 -60.221,-97.485 -6.669,-22.141 -10.311,-45.956 -10.311,-70.772 0,-18.743 2.079,-36.915 5.965,-54.228 -41.521,11.294 -77.5,33.176 -103.587,61.933 -27.84,30.688 -44.418,69.193 -44.418,111.01 0,24.296 5.607,47.471 15.754,68.649 31,64.702 104.491,110.721 190.87,112.765 1.997,0.04 3.995,0.076 6.002,0.076 2.007,0 4.005,-0.036 6.002,-0.076 1.438,-0.034 2.87,-0.082 4.301,-0.141 z"
   id="path49"
   inkscape:connector-curvature="0"
   style="fill:url(#SVGID_4_);stroke:#f1f2f2;stroke-width:3;stroke-miterlimit:10"
   sodipodi:nodetypes="ccssscssccsscsccc" />
	
		<linearGradient
   id="SVGID_5_"
   gradientUnits="userSpaceOnUse"
   x1="249.6802"
   y1="400.2422"
   x2="390.7451"
   y2="400.2422"
   gradientTransform="matrix(1 0 0 -1 -6 797)">
		<stop
   offset="0"
   style="stop-color:#FFFFFF"
   id="stop52" />
		<stop
   offset="1"
   style="stop-color:#000000"
   id="stop54" />
	</linearGradient>
	<path
   fill="url(#SVGID_5_)"
   fill-opacity="0"
   d="M378.772,334.793c-20.346-5.523-42.015-8.513-64.505-8.513   c-22.533,0-44.242,3.002-64.622,8.545c-3.887,17.313-5.965,35.485-5.965,54.228c0,24.816,3.641,48.631,10.311,70.772   c19.111,4.814,39.337,7.41,60.276,7.41c20.896,0,41.082-2.585,60.159-7.38c6.675-22.15,10.319-45.977,10.319-70.803   C384.745,370.298,382.664,352.115,378.772,334.793z"
   id="path56" />
</g>
</svg>